<svg xmlns="http://www.w3.org/2000/svg" width="500" height="500" viewBox="0 0 500 500">
  <g id="shopping-center" transform="translate(-25.999 0)">
    <g id="Group_1" data-name="Group 1" transform="translate(25.999 0)">
      <path id="Path_9" data-name="Path 9" d="M525.991,431.293l-10.87-273.438c-.646-16.232-14.965-28.948-32.6-28.948H390.129V102.539C390.129,46,338.931,0,276,0a124.772,124.772,0,0,0-38.367,5.99c-5.65,1.822-8.586,7.415-6.558,12.491s8.254,7.712,13.9,5.892A100.87,100.87,0,0,1,276,19.531c50.945,0,92.391,37.237,92.391,83.008v75.2c0,5.385-4.876,9.766-10.869,9.766s-10.869-4.381-10.869-9.766v-75.2c0-35-31.694-63.476-70.652-63.476s-70.652,28.476-70.652,63.476v75.2c0,5.385-4.876,9.766-10.869,9.766s-10.869-4.381-10.869-9.766v-75.2a74.726,74.726,0,0,1,3.377-22.2c1.615-5.194-1.763-10.581-7.544-12.032s-11.778,1.584-13.392,6.779a92.413,92.413,0,0,0-4.179,27.456v26.368H69.477c-17.636,0-31.956,12.716-32.6,28.949L26.005,431.293c0,.115-.007.231-.007.348V470.7C26,486.857,40.627,500,58.607,500H493.391C511.371,500,526,486.857,526,470.7V431.641c0-.116,0-.232-.008-.348ZM276,58.594c26.97,0,48.913,19.714,48.913,43.945v26.368H227.087V102.539c0-24.231,21.941-43.945,48.911-43.945ZM493.391,480.469H58.606c-5.993,0-10.869-4.381-10.869-9.766v-29.3h330.8c6,0,10.869-4.373,10.869-9.766s-4.866-9.766-10.869-9.766H48.132L58.6,158.551a10.691,10.691,0,0,1,10.876-10.113h92.392v29.3c0,16.154,14.628,29.3,32.608,29.3s32.608-13.143,32.608-29.3v-29.3H324.91v29.3c0,16.154,14.628,29.3,32.608,29.3s32.608-13.143,32.608-29.3v-29.3h92.392a10.691,10.691,0,0,1,10.876,10.113l10.468,263.324h-27.5c-6,0-10.869,4.373-10.869,9.766s4.866,9.766,10.869,9.766h27.9v29.3c0,5.385-4.875,9.766-10.868,9.766Z" transform="translate(-25.999 0)" fill="#ffeb00"/>
      <path id="Path_10" data-name="Path 10" d="M318.455,256.219a30,30,0,0,0-54.935-7.242l-67,116.048a29.994,29.994,0,0,0,25.89,45,30.313,30.313,0,0,0,7.849-1.041,29.789,29.789,0,0,0,18.222-13.955l67-116.047a29.792,29.792,0,0,0,2.974-22.759Zm-20.294,12.759-67,116.047a10,10,0,1,1-17.321-10l67-116.048a9.927,9.927,0,0,1,6.078-4.636,10.213,10.213,0,0,1,2.64-.351,10.015,10.015,0,0,1,8.6,14.987Z" transform="translate(-6.001 -8.358)" fill="#ffeb00"/>
      <path id="Path_11" data-name="Path 11" d="M232.991,266.492a32.5,32.5,0,1,0-32.5,32.5A32.537,32.537,0,0,0,232.991,266.492Zm-45,0a12.5,12.5,0,1,1,12.5,12.5A12.513,12.513,0,0,1,187.991,266.492Z" transform="translate(-11.622 -6.282)" fill="#ffeb00"/>
      <path id="Path_12" data-name="Path 12" d="M311.511,345.01a32.5,32.5,0,1,0,32.5,32.5A32.536,32.536,0,0,0,311.511,345.01Zm0,45a12.5,12.5,0,1,1,12.5-12.5A12.514,12.514,0,0,1,311.511,390.01Z" transform="translate(-0.38 -9.263)" fill="#ffeb00"/>
      <path id="Path_13" data-name="Path 13" d="M395.343,432h-.007a10,10,0,1,0,.007,0Z" transform="translate(6.665 -12.001)" fill="#ffeb00"/>
      <path id="Path_14" data-name="Path 14" d="M186.532,50.344a10,10,0,0,0,0-20h-.007a10,10,0,0,0,.007,20Z" transform="translate(-12.316 0)" fill="#ffeb00"/>
    </g>
  </g>
</svg>
