<svg xmlns="http://www.w3.org/2000/svg" width="500" height="443.651" viewBox="0 0 500 443.651">
  <g id="web-development" transform="translate(0 -0.5)">
    <path id="Path_2" data-name="Path 2" d="M60.035,60.547H85.693V84H60.035Zm0,0" transform="translate(-8.73 -13.107)" fill="#ffeb00"/>
    <path id="Path_3" data-name="Path 3" d="M120.086,60.547h25.657V84H120.086Zm0,0" transform="translate(-1.902 -13.107)" fill="#ffeb00"/>
    <path id="Path_4" data-name="Path 4" d="M180.133,60.547H205.79V84H180.133Zm0,0" transform="translate(-2.853 -13.107)" fill="#ffeb00"/>
    <path id="Path_5" data-name="Path 5" d="M0,.5V444.151H500V.5ZM470.7,29.949v88.442H29.3V29.949ZM29.3,414.7V147.84H470.7V414.7Zm0,0" fill="#ffeb00"/>
    <path id="Path_6" data-name="Path 6" d="M177.385,196.867l-60.291,70.086,60.291,70.086,20.146-14.5-47.813-55.585,47.813-55.585Zm0,0" transform="translate(0.473 22.21)" fill="#ffeb00"/>
    <path id="Path_7" data-name="Path 7" d="M300.781,211.369l47.813,55.585-47.813,55.585,20.146,14.5,60.291-70.086-60.291-70.086Zm0,0" transform="translate(1.215 22.21)" fill="#ffeb00"/>
    <path id="Path_8" data-name="Path 8" d="M241,196.469h25.637v140.8H241Zm0,0" transform="translate(-3.819 22.356)" fill="#ffeb00"/>
  </g>
</svg>
