<svg id="boxing-day" xmlns="http://www.w3.org/2000/svg" width="500" height="500" viewBox="0 0 500 500">
  <path id="Path_1" data-name="Path 1" d="M500,107.508H398.921A68.35,68.35,0,0,0,342.848,0,107.553,107.553,0,0,0,250,53.379,107.553,107.553,0,0,0,157.152,0a68.35,68.35,0,0,0-56.073,107.508H0V224.766H29.32V500H470.68V224.766H500ZM342.848,29.3a39.105,39.105,0,1,1,0,78.211h-78.2V107.5A78.288,78.288,0,0,1,342.848,29.3ZM293.971,283.406H441.383V312.75H293.971Zm-29.3,187.3H235.33V224.766h29.344ZM58.617,283.406H206.033V312.75H58.617ZM235.33,195.469V136.8h29.344v58.664ZM118.047,68.4A39.15,39.15,0,0,1,157.152,29.3a78.288,78.288,0,0,1,78.2,78.2l-78.2.012A39.149,39.149,0,0,1,118.047,68.4ZM29.3,136.8H206.033v58.664H29.3Zm176.736,87.961v29.344H58.617V224.766ZM58.617,342.047H206.033V470.7H58.617ZM293.971,470.7V342.047H441.383V470.7ZM441.383,254.109H293.971V224.766H441.383Zm29.32-58.641H293.971V136.8H470.7Z" fill="#ffeb00"/>
</svg>
