<svg xmlns="http://www.w3.org/2000/svg" width="382.337" height="493.76" viewBox="0 0 382.337 493.76">
  <path id="food-and-restaurant" d="M380.236,145.955a7.966,7.966,0,0,0-5.9-2.605h-7.964V103.53a7.964,7.964,0,0,0-7.964-7.964H318.594V7.964A7.964,7.964,0,0,0,310.63,0H262.847a7.964,7.964,0,0,0-7.964,7.964V55.747H223.027V7.964A7.964,7.964,0,0,0,215.063,0H167.28a7.964,7.964,0,0,0-7.964,7.964V31.855H127.461V7.964A7.964,7.964,0,0,0,119.5,0H71.714A7.964,7.964,0,0,0,63.75,7.964V71.675H23.931a7.964,7.964,0,0,0-7.964,7.964V143.35H8a7.966,7.966,0,0,0-7.964,8.761L31.894,486.593a7.969,7.969,0,0,0,7.964,7.167H342.485a7.959,7.959,0,0,0,7.964-7.206L382.3,152.072A8.012,8.012,0,0,0,380.236,145.955ZM354.21,278.736H28.138L16.764,159.277H79.958a111.495,111.495,0,0,0,222.432,0h63.19ZM343.57,390.444a8.629,8.629,0,0,0-1.085-.214H39.858a8.435,8.435,0,0,0-1.081.214l-9.119-95.78H352.689Zm6.879-278.949V143.35H318.594V111.494ZM270.811,15.928h31.855V143.35H294.7a7.964,7.964,0,0,0-7.964,7.964,94.959,94.959,0,0,1-15.928,52.714ZM254.883,71.675V222.343A95.51,95.51,0,0,1,223.027,241.3V71.675ZM175.244,15.928H207.1v229.51a88.588,88.588,0,0,1-31.855,0ZM159.316,47.783V241.3a95.549,95.549,0,0,1-31.855-18.961V47.783ZM79.678,15.928h31.855v188.1a94.99,94.99,0,0,1-15.928-52.714,7.964,7.964,0,0,0-7.964-7.964H79.678ZM31.894,87.6H63.75V143.35H31.894Zm15.2,390.23-6.825-71.675H342.1l-6.824,71.675Zm0,0" transform="translate(0.001)" fill="#ffeb00"/>
</svg>
